<?xml version="1.0" standalone="no"?><!DOCTYPE svg PUBLIC "-//W3C//DTD SVG 1.1//EN" "http://www.w3.org/Graphics/SVG/1.1/DTD/svg11.dtd"><svg t="1729739848632" class="icon" viewBox="0 0 1536 1024" version="1.1" xmlns="http://www.w3.org/2000/svg" p-id="5525" xmlns:xlink="http://www.w3.org/1999/xlink" width="300" height="200"><path d="M0 0h1536v1024H0z" fill="#D8231D" p-id="5526"></path><path d="M626.7392 261.5808a165.4784 165.4784 0 0 1 14.3872 14.0288l14.2848 15.0016 36.608-17.664a163.84 163.84 0 0 1-8.96 18.432c-3.072 6.0416-6.2976 11.9808-9.5232 18.176l28.8768 30.0032a25.6 25.6 0 0 1-3.072 0l-34.9184-6.5536c-3.3792-0.6144-3.3792-0.512-5.12 2.6112l-16.1792 30.72-1.9456 3.2256-1.2288-8.2944c-1.536-10.24-2.9184-20.48-4.3008-30.72-0.4096-2.4576-0.4096-2.5088-2.9184-3.0208l-35.84-6.5536a5.12 5.12 0 0 1-1.8432-0.7168c5.9904-3.3792 12.1344-6.144 18.176-9.1136l18.5344-8.9088-5.12-40.3968zM502.016 170.6496l0.6144-0.512 37.3248 15.36 26.7264-31.6416v4.3008l-2.304 33.9456c0 3.3792 0 3.3792 2.9184 4.608l32.7168 13.2096c0.768 0 1.3824 0.6144 2.7136 1.1776l-3.072 1.0752-34.56 8.448c-2.9184 0.6144-2.9184 0.6144-3.1744 3.6864l-2.4576 37.0176-0.3072 1.8432-2.0992-3.2256c-6.144-9.8304-12.288-19.712-18.5856-29.5424-1.6896-2.7648-1.792-2.7648-5.12-1.8944l-34.2016 8.3456-2.9184 0.5632c9.0624-10.9056 17.8176-21.1968 26.7264-31.7952l-21.0432-34.6112z m-63.488 144.0768L357.5808 374.4768l-1.9968 1.4848c-2.304 1.792-2.304 1.792-1.3824 4.6592l22.1184 67.584 10.24 31.4368 0.768 2.5088h-0.6144l-1.792-1.2288-86.016-62.976-0.768-0.4608h-0.7168L209.0496 482.4576l-0.6144-0.4608 33.5872-105.0112-88.4736-64.3584v-0.768h105.3184c4.608 0 3.84 0.5632 5.12-3.84l32.256-96.2048a9.472 9.472 0 0 1 1.6896-3.2768l33.536 103.2704c6.0416 0.3072 12.1344 0 18.1248 0h91.4432v0.6656z m161.2288 253.9008l-34.2528 8.2944-3.2256 0.9216-2.816 41.6768-1.9968-2.816-18.7392-29.7984c-1.792-2.816-1.8432-2.816-5.12-2.048l-34.1504 8.448-3.072 0.512 26.7776-31.8464-21.0432-34.56 0.4096-0.512c6.3488 2.1504 12.4416 5.12 18.688 7.424l18.8928 7.68 26.2144-31.1296h0.512v3.4816l-2.304 33.8432v1.2288a2.56 2.56 0 0 0 1.9968 3.1744l14.1312 5.6832 19.6608 7.8848 2.7136 1.1264-3.2256 1.0752z m99.1744-122.4704l-27.0336 21.0432c-2.6624 2.048-2.6624 2.048-1.536 5.12l11.6736 32.6144a6.4512 6.4512 0 0 1 0.3584 3.2256l-33.792-23.3984-32.4608 25.1904-0.512-0.4096 11.4176-39.4752-33.4848-23.04v-0.768c13.4144-0.6656 26.88-0.512 40.704-1.28l11.8272-38.8096h0.512l1.2288 3.072 11.52 32.3584c1.024 2.9184 1.024 2.9184 4.096 2.816l34.2528-1.024h3.2256v0.6144z" fill="#FFFA30" p-id="5527"></path></svg>